<svg width="13" height="27" viewBox="0 0 13 27" fill="none" xmlns="http://www.w3.org/2000/svg">
<path d="M0.317684 26.2644C0.216972 26.152 0.137077 26.0186 0.0825663 25.8717C0.0280552 25.7248 0 25.5674 0 25.4084C0 25.2494 0.0280552 25.0919 0.0825663 24.9451C0.137077 24.7982 0.216972 24.6647 0.317684 24.5524L10.3846 13.3095L0.317684 2.06656C0.114433 1.83954 0.000247955 1.53162 0.000247955 1.21056C0.000247955 0.889502 0.114433 0.58159 0.317684 0.354566C0.520935 0.127541 0.796602 6.32888e-09 1.08404 0C1.37148 -6.32888e-09 1.64715 0.127541 1.8504 0.354566L12.6823 12.4535C12.783 12.5658 12.8629 12.6993 12.9174 12.8461C12.9719 12.993 13 13.1505 13 13.3095C13 13.4685 12.9719 13.6259 12.9174 13.7728C12.8629 13.9197 12.783 14.0531 12.6823 14.1655L1.8504 26.2644C1.7498 26.3769 1.63034 26.4661 1.49884 26.527C1.36734 26.5879 1.22639 26.6192 1.08404 26.6192C0.941694 26.6192 0.800742 26.5879 0.669245 26.527C0.537747 26.4661 0.418283 26.3769 0.317684 26.2644Z" fill="#282828"/>
</svg>
