<svg width="13" height="27" viewBox="0 0 13 27" fill="none" xmlns="http://www.w3.org/2000/svg">
<path d="M12.6823 0.354774C12.783 0.46714 12.8629 0.60058 12.9174 0.747458C12.9719 0.894337 13 1.05177 13 1.21077C13 1.36977 12.9719 1.52721 12.9174 1.67409C12.8629 1.82097 12.783 1.9544 12.6823 2.06677L2.61541 13.3097L12.6823 24.5526C12.8856 24.7796 12.9998 25.0875 12.9998 25.4086C12.9998 25.7296 12.8856 26.0376 12.6823 26.2646C12.4791 26.4916 12.2034 26.6191 11.916 26.6191C11.6285 26.6191 11.3528 26.4916 11.1496 26.2646L0.317685 14.1657C0.216974 14.0533 0.137079 13.9199 0.0825686 13.773C0.0280578 13.6261 0 13.4687 0 13.3097C0 13.1507 0.0280578 12.9932 0.0825686 12.8464C0.137079 12.6995 0.216974 12.566 0.317685 12.4537L11.1496 0.354774C11.2502 0.242283 11.3697 0.153042 11.5012 0.0921555C11.6327 0.0312672 11.7736 -6.86646e-05 11.916 -6.86646e-05C12.0583 -6.86646e-05 12.1993 0.0312672 12.3308 0.0921555C12.4623 0.153042 12.5817 0.242283 12.6823 0.354774Z" fill="#282828"/>
</svg>
