<svg width="40" height="36" viewBox="0 0 40 36" fill="none" xmlns="http://www.w3.org/2000/svg">
<path d="M35.3846 4.61538H30.0538L27.4327 0.684616C27.2923 0.474138 27.1021 0.301544 26.879 0.182126C26.656 0.062708 26.4069 0.000151933 26.1538 0H13.8462C13.5931 0.000151933 13.3441 0.062708 13.121 0.182126C12.8979 0.301544 12.7077 0.474138 12.5673 0.684616L9.94423 4.61538H4.61538C3.39131 4.61538 2.21737 5.10165 1.35181 5.9672C0.486262 6.83275 0 8.00669 0 9.23077V30.7692C0 31.9933 0.486262 33.1672 1.35181 34.0328C2.21737 34.8983 3.39131 35.3846 4.61538 35.3846H35.3846C36.6087 35.3846 37.7826 34.8983 38.6482 34.0328C39.5137 33.1672 40 31.9933 40 30.7692V9.23077C40 8.00669 39.5137 6.83275 38.6482 5.9672C37.7826 5.10165 36.6087 4.61538 35.3846 4.61538ZM36.9231 30.7692C36.9231 31.1773 36.761 31.5686 36.4725 31.8571C36.184 32.1456 35.7926 32.3077 35.3846 32.3077H4.61538C4.20736 32.3077 3.81605 32.1456 3.52753 31.8571C3.23901 31.5686 3.07692 31.1773 3.07692 30.7692V9.23077C3.07692 8.82274 3.23901 8.43143 3.52753 8.14291C3.81605 7.8544 4.20736 7.69231 4.61538 7.69231H10.7692C11.0226 7.69247 11.272 7.63007 11.4955 7.51064C11.7189 7.3912 11.9094 7.21844 12.05 7.00769L14.6692 3.07692H25.3288L27.95 7.00769C28.0906 7.21844 28.2811 7.3912 28.5045 7.51064C28.728 7.63007 28.9774 7.69247 29.2308 7.69231H35.3846C35.7926 7.69231 36.184 7.8544 36.4725 8.14291C36.761 8.43143 36.9231 8.82274 36.9231 9.23077V30.7692ZM20 10.7692C18.3265 10.7692 16.6905 11.2655 15.299 12.1953C13.9075 13.125 12.823 14.4465 12.1826 15.9927C11.5421 17.5388 11.3746 19.2402 11.701 20.8815C12.0275 22.5229 12.8334 24.0306 14.0168 25.214C15.2002 26.3973 16.7079 27.2032 18.3492 27.5297C19.9906 27.8562 21.6919 27.6886 23.2381 27.0482C24.7842 26.4078 26.1057 25.3232 27.0355 23.9317C27.9653 22.5403 28.4615 20.9043 28.4615 19.2308C28.459 16.9874 27.5667 14.8367 25.9804 13.2504C24.3941 11.6641 22.2434 10.7718 20 10.7692ZM20 24.6154C18.935 24.6154 17.894 24.2996 17.0085 23.7079C16.123 23.1162 15.4328 22.2753 15.0253 21.2914C14.6177 20.3075 14.5111 19.2248 14.7188 18.1803C14.9266 17.1358 15.4395 16.1763 16.1925 15.4233C16.9456 14.6702 17.905 14.1574 18.9495 13.9496C19.994 13.7418 21.0767 13.8485 22.0606 14.256C23.0445 14.6636 23.8855 15.3537 24.4771 16.2392C25.0688 17.1247 25.3846 18.1658 25.3846 19.2308C25.3846 20.6589 24.8173 22.0285 23.8075 23.0383C22.7977 24.0481 21.4281 24.6154 20 24.6154Z" fill="#282828" fill-opacity="0.5"/>
</svg>
