<svg width="18" height="20" viewBox="0 0 18 20" fill="none" xmlns="http://www.w3.org/2000/svg">
<path fill-rule="evenodd" clip-rule="evenodd" d="M4.75929 0.348145H13.0977C16.1343 0.348145 17.8486 2.17451 17.8575 5.39455V14.2376C17.8575 17.4567 16.1343 19.284 13.0977 19.284H4.75929C1.72269 19.284 0.000366211 17.4567 0.000366211 14.2376V5.39455C0.000366211 2.17451 1.72269 0.348145 4.75929 0.348145ZM8.97269 15.3643C9.35751 15.3643 9.67805 15.0613 9.71376 14.6542V5.00636C9.74947 4.71286 9.61644 4.41841 9.37537 4.2584C9.12447 4.09744 8.8209 4.09744 8.58072 4.2584C8.33876 4.41841 8.20572 4.71286 8.23162 5.00636V14.6542C8.27715 15.0613 8.59769 15.3643 8.97269 15.3643ZM13.0807 15.3643C13.4557 15.3643 13.7763 15.0613 13.8218 14.6542V11.5487C13.8477 11.2448 13.7147 10.9617 13.4727 10.8007C13.2325 10.6398 12.9289 10.6398 12.6789 10.8007C12.437 10.9617 12.3039 11.2448 12.3397 11.5487V14.6542C12.3754 15.0613 12.6959 15.3643 13.0807 15.3643ZM5.55304 14.6542C5.51733 15.0613 5.19679 15.3643 4.81197 15.3643C4.42804 15.3643 4.10662 15.0613 4.07179 14.6542V8.11184C4.04501 7.81739 4.17804 7.52483 4.42001 7.36388C4.66019 7.20292 4.96465 7.20292 5.20572 7.36388C5.4459 7.52483 5.58072 7.81739 5.55304 8.11184V14.6542Z" fill="#1E1E1E"/>
</svg>
