<svg width="28" height="24" viewBox="0 0 28 24" fill="none" xmlns="http://www.w3.org/2000/svg">
<path d="M28 21.9917C28 22.2694 27.8865 22.5358 27.6846 22.7322C27.4826 22.9286 27.2087 23.0389 26.9231 23.0389H1.07692C0.791305 23.0389 0.517386 22.9286 0.315423 22.7322C0.113461 22.5358 0 22.2694 0 21.9917V1.04722C0 0.769482 0.113461 0.503117 0.315423 0.306725C0.517386 0.110332 0.791305 0 1.07692 0C1.36254 0 1.63646 0.110332 1.83842 0.306725C2.04038 0.503117 2.15385 0.769482 2.15385 1.04722V15.2751L8.93038 8.6841C9.0304 8.58673 9.14917 8.50949 9.27991 8.45679C9.41065 8.40409 9.55078 8.37696 9.69231 8.37696C9.83383 8.37696 9.97397 8.40409 10.1047 8.45679C10.2354 8.50949 10.3542 8.58673 10.4542 8.6841L14 12.1334L21.0929 5.23612H18.3077C18.0221 5.23612 17.7482 5.12578 17.5462 4.92939C17.3442 4.733 17.2308 4.46663 17.2308 4.18889C17.2308 3.91115 17.3442 3.64479 17.5462 3.44839C17.7482 3.252 18.0221 3.14167 18.3077 3.14167H23.6923C23.9779 3.14167 24.2518 3.252 24.4538 3.44839C24.6558 3.64479 24.7692 3.91115 24.7692 4.18889V9.42501C24.7692 9.70275 24.6558 9.96911 24.4538 10.1655C24.2518 10.3619 23.9779 10.4722 23.6923 10.4722C23.4067 10.4722 23.1328 10.3619 22.9308 10.1655C22.7288 9.96911 22.6154 9.70275 22.6154 9.42501V6.71663L14.7619 14.3548C14.6619 14.4522 14.5431 14.5294 14.4124 14.5821C14.2817 14.6348 14.1415 14.6619 14 14.6619C13.8585 14.6619 13.7183 14.6348 13.5876 14.5821C13.4569 14.5294 13.3381 14.4522 13.2381 14.3548L9.69231 10.9055L2.15385 18.2361V20.9445H26.9231C27.2087 20.9445 27.4826 21.0548 27.6846 21.2512C27.8865 21.4476 28 21.7139 28 21.9917Z" fill="#282828"/>
</svg>
