<svg width="15" height="15" viewBox="0 0 15 15" fill="none" xmlns="http://www.w3.org/2000/svg">
<path d="M14.25 0.5C14.3163 0.500099 14.3799 0.526377 14.4268 0.573242C14.4736 0.620108 14.4999 0.683732 14.5 0.75C14.5 0.816403 14.4737 0.88078 14.4268 0.927734L8.20703 7.14648L7.85352 7.5L8.20703 7.85352L14.4268 14.0723C14.45 14.0955 14.4679 14.1239 14.4805 14.1543C14.493 14.1846 14.5 14.2172 14.5 14.25C14.5 14.2827 14.493 14.3154 14.4805 14.3457C14.4679 14.3759 14.4499 14.4036 14.4268 14.4268C14.4036 14.4499 14.3759 14.4679 14.3457 14.4805C14.3154 14.493 14.2827 14.5 14.25 14.5C14.2172 14.5 14.1846 14.493 14.1543 14.4805C14.1239 14.4679 14.0955 14.45 14.0723 14.4268L7.85352 8.20703L7.5 7.85352L7.14648 8.20703L0.927734 14.4268C0.88078 14.4737 0.816403 14.5 0.75 14.5C0.683732 14.4999 0.620108 14.4736 0.573242 14.4268C0.526377 14.3799 0.500099 14.3163 0.5 14.25C0.5 14.1836 0.526288 14.1192 0.573242 14.0723L6.79297 7.85352L7.14648 7.5L6.79297 7.14648L0.573242 0.927734C0.526288 0.88078 0.5 0.816404 0.5 0.75C0.500099 0.683732 0.526376 0.620108 0.573242 0.573242C0.620108 0.526376 0.683732 0.500099 0.75 0.5C0.816404 0.5 0.88078 0.526288 0.927734 0.573242L7.14648 6.79297L7.5 7.14648L7.85352 6.79297L14.0723 0.573242C14.1192 0.526288 14.1836 0.5 14.25 0.5Z" fill="#FF0000" stroke="black"/>
</svg>
