<svg width="46" height="46" viewBox="0 0 46 46" fill="none" xmlns="http://www.w3.org/2000/svg">
<circle cx="23" cy="23" r="23" fill="#959393"/>
<path d="M22.9963 14.8214C23.8687 14.8214 24.7214 14.5627 25.4467 14.078C26.1721 13.5934 26.7374 12.9045 27.0712 12.0986C27.4051 11.2926 27.4924 10.4058 27.3222 9.5502C27.152 8.69461 26.732 7.90871 26.1151 7.29186C25.4983 6.67502 24.7124 6.25494 23.8568 6.08475C23.0012 5.91456 22.1144 6.00191 21.3084 6.33575C20.5025 6.66958 19.8136 7.23491 19.329 7.96024C18.8443 8.68557 18.5856 9.53833 18.5856 10.4107C18.5856 11.5805 19.0503 12.7023 19.8775 13.5295C20.7046 14.3567 21.8265 14.8214 22.9963 14.8214ZM22.9963 7.76427C23.5197 7.76427 24.0314 7.91948 24.4666 8.21027C24.9018 8.50107 25.241 8.91438 25.4413 9.39795C25.6416 9.88151 25.694 10.4136 25.5919 10.927C25.4897 11.4403 25.2377 11.9119 24.8676 12.282C24.4975 12.6521 24.0259 12.9041 23.5126 13.0062C22.9992 13.1084 22.4671 13.0559 21.9836 12.8556C21.5 12.6553 21.0867 12.3161 20.7959 11.8809C20.5051 11.4457 20.3499 10.9341 20.3499 10.4107C20.3499 9.70881 20.6287 9.03569 21.125 8.53939C21.6213 8.04309 22.2944 7.76427 22.9963 7.76427ZM37.9265 17.4884C37.8059 16.8955 37.4822 16.3634 37.0111 15.9838C36.54 15.6042 35.9511 15.4011 35.3462 15.4095H10.6464C10.0432 15.4095 9.4582 15.6155 8.98815 15.9934C8.5181 16.3714 8.19125 16.8985 8.06174 17.4876C7.93222 18.0767 8.00781 18.6923 8.276 19.2326C8.54418 19.7728 8.98885 20.2052 9.53637 20.4582H9.55107L17.2433 23.8397L14.0911 35.8221C13.9163 36.2254 13.8446 36.6659 13.8827 37.1038C13.9207 37.5417 14.0672 37.9633 14.309 38.3304C14.5508 38.6975 14.8802 38.9986 15.2675 39.2065C15.6548 39.4144 16.0877 39.5225 16.5273 39.5212C17.0237 39.5199 17.5098 39.3795 17.9306 39.116C18.3513 38.8525 18.6897 38.4764 18.9076 38.0304L22.9963 30.9939L27.085 38.0377C27.3913 38.6516 27.924 39.1226 28.5708 39.3514C29.2176 39.5801 29.9279 39.5487 30.552 39.2638C31.1761 38.979 31.6652 38.4628 31.9162 37.8243C32.1671 37.1858 32.1602 36.4748 31.8971 35.8412L28.7449 23.8589L36.4371 20.4773H36.4518C37.0093 20.2313 37.4625 19.7971 37.732 19.2507C38.0016 18.7043 38.0704 18.0804 37.9265 17.4884ZM35.7211 18.8542L27.3482 22.5415C27.1564 22.6259 27.001 22.7758 26.9096 22.9644C26.8183 23.153 26.7971 23.3679 26.8498 23.5707L30.2122 36.3514C30.227 36.4015 30.2452 36.4507 30.2666 36.4984C30.3654 36.7105 30.376 36.9532 30.2959 37.1731C30.2158 37.393 30.0516 37.5721 29.8395 37.6709C29.6274 37.7697 29.3847 37.7803 29.1648 37.7002C28.9449 37.6201 28.7658 37.4559 28.667 37.2438C28.6568 37.2195 28.645 37.1959 28.6317 37.1732L23.7594 28.7885C23.6818 28.6548 23.5705 28.5439 23.4366 28.4668C23.3027 28.3896 23.1508 28.349 22.9963 28.349C22.8418 28.349 22.6899 28.3896 22.556 28.4668C22.4221 28.5439 22.3108 28.6548 22.2333 28.7885L17.3639 37.1762C17.3506 37.1997 17.3389 37.2217 17.3271 37.2467C17.2781 37.3522 17.2088 37.4469 17.1231 37.5255C17.0374 37.604 16.937 37.6649 16.8277 37.7045C16.7184 37.7441 16.6023 37.7617 16.4862 37.7564C16.37 37.751 16.2561 37.7227 16.1509 37.6731C16.0455 37.6241 15.9507 37.5548 15.8722 37.4691C15.7936 37.3834 15.7328 37.283 15.6932 37.1737C15.6535 37.0644 15.6359 36.9483 15.6413 36.8322C15.6467 36.716 15.675 36.6021 15.7246 36.4969C15.7459 36.4492 15.7641 36.4001 15.779 36.3499L19.1414 23.5692C19.194 23.3664 19.1728 23.1515 19.0815 22.9629C18.9902 22.7744 18.8347 22.6245 18.643 22.5401L10.2744 18.8542C10.0932 18.769 9.94632 18.6247 9.85799 18.4449C9.76966 18.2652 9.74511 18.0608 9.78839 17.8652C9.83168 17.6697 9.94021 17.4947 10.0961 17.369C10.2521 17.2433 10.4461 17.1745 10.6464 17.1737H35.3462C35.5469 17.1735 35.7416 17.2416 35.8983 17.367C36.055 17.4923 36.1643 17.6673 36.2081 17.8631C36.252 18.0589 36.2278 18.2638 36.1395 18.4439C36.0512 18.6241 35.9042 18.7688 35.7226 18.8542H35.7211Z" fill="white"/>
</svg>
