<svg width="26" height="17" viewBox="0 0 26 17" fill="none" xmlns="http://www.w3.org/2000/svg">
<path d="M25.9253 8.15575C25.8873 8.07181 24.9698 6.07538 22.9298 4.07469C20.2118 1.40887 16.7787 0 13 0C9.22133 0 5.78824 1.40887 3.07016 4.07469C1.03024 6.07538 0.108323 8.075 0.0747397 8.15575C0.0254622 8.26446 0 8.3821 0 8.50106C0 8.62003 0.0254622 8.73767 0.0747397 8.84637C0.112656 8.93031 1.03024 10.9257 3.07016 12.9264C5.78824 15.5911 9.22133 17 13 17C16.7787 17 20.2118 15.5911 22.9298 12.9264C24.9698 10.9257 25.8873 8.93031 25.9253 8.84637C25.9745 8.73767 26 8.62003 26 8.50106C26 8.3821 25.9745 8.26446 25.9253 8.15575ZM13 15.3C9.6655 15.3 6.75241 14.1111 4.34091 11.7672C3.35148 10.8021 2.50967 9.70161 1.84166 8.5C2.50941 7.29822 3.35125 6.19772 4.34091 5.23281C6.75241 2.88894 9.6655 1.7 13 1.7C16.3345 1.7 19.2476 2.88894 21.6591 5.23281C22.6504 6.19756 23.4941 7.29805 24.1638 8.5C23.3827 9.93013 19.9799 15.3 13 15.3ZM13 3.4C11.9715 3.4 10.9662 3.69911 10.111 4.25951C9.2559 4.8199 8.5894 5.61641 8.19582 6.54831C7.80225 7.48022 7.69927 8.50566 7.89991 9.49496C8.10056 10.4843 8.59581 11.393 9.32304 12.1062C10.0503 12.8195 10.9768 13.3052 11.9855 13.502C12.9942 13.6988 14.0398 13.5978 14.99 13.2118C15.9401 12.8258 16.7523 12.1721 17.3236 11.3334C17.895 10.4947 18.2 9.50869 18.2 8.5C18.1986 7.14783 17.6503 5.85144 16.6754 4.89531C15.7005 3.93918 14.3787 3.40141 13 3.4ZM13 11.9C12.3144 11.9 11.6441 11.7006 11.074 11.327C10.5039 10.9534 10.0596 10.4224 9.79721 9.80112C9.53483 9.17985 9.46618 8.49623 9.59994 7.83669C9.7337 7.17716 10.0639 6.57134 10.5487 6.09584C11.0335 5.62034 11.6512 5.29652 12.3237 5.16533C12.9962 5.03414 13.6932 5.10147 14.3266 5.35881C14.9601 5.61615 15.5015 6.05193 15.8824 6.61106C16.2634 7.17019 16.4667 7.82754 16.4667 8.5C16.4667 9.40174 16.1014 10.2665 15.4513 10.9042C14.8012 11.5418 13.9194 11.9 13 11.9Z" fill="#282828" fill-opacity="0.5"/>
</svg>
