<svg width="31" height="31" viewBox="0 0 31 31" fill="none" xmlns="http://www.w3.org/2000/svg">
<path d="M15.3934 23.4761C15.0708 23.4761 14.7967 23.3632 14.5709 23.1374C14.3451 22.9116 14.2322 22.6374 14.2322 22.3148C14.2322 21.9923 14.3451 21.7181 14.5709 21.4923C14.7967 21.2665 15.0708 21.1536 15.3934 21.1536C15.716 21.1536 15.9902 21.2665 16.216 21.4923C16.4418 21.7181 16.5546 21.9923 16.5546 22.3148C16.5546 22.6374 16.4418 22.9116 16.216 23.1374C15.9902 23.3632 15.716 23.4761 15.3934 23.4761ZM15.3934 16.8957C15.0708 16.8957 14.7967 16.7828 14.5709 16.557C14.3451 16.3312 14.2322 16.0571 14.2322 15.7345C14.2322 15.4119 14.3451 15.1377 14.5709 14.9119C14.7967 14.6862 15.0708 14.5733 15.3934 14.5733C15.716 14.5733 15.9902 14.6862 16.216 14.9119C16.4418 15.1377 16.5546 15.4119 16.5546 15.7345C16.5546 16.0571 16.4418 16.3312 16.216 16.557C15.9902 16.7828 15.716 16.8957 15.3934 16.8957ZM15.3934 10.3154C15.0708 10.3154 14.7967 10.2025 14.5709 9.9767C14.3451 9.7509 14.2322 9.47672 14.2322 9.15415C14.2322 8.83159 14.3451 8.55741 14.5709 8.33161C14.7967 8.10582 15.0708 7.99292 15.3934 7.99292C15.716 7.99292 15.9902 8.10582 16.216 8.33161C16.4418 8.55741 16.5546 8.83159 16.5546 9.15415C16.5546 9.47672 16.4418 9.7509 16.216 9.9767C15.9902 10.2025 15.716 10.3154 15.3934 10.3154Z" fill="#272727"/>
</svg>
