<svg width="26" height="29" viewBox="0 0 26 29" fill="none" xmlns="http://www.w3.org/2000/svg">
<path d="M24.0638 9.84906H19.3617V6.29245C19.3617 4.62359 18.6915 3.02308 17.4984 1.84302C16.3054 0.662953 14.6872 0 13 0C11.3128 0 9.69465 0.662953 8.5016 1.84302C7.30855 3.02308 6.6383 4.62359 6.6383 6.29245V9.84906H1.93617C1.42267 9.84906 0.930194 10.0508 0.567091 10.41C0.203989 10.7691 0 11.2562 0 11.7642V27.0849C0 27.5928 0.203989 28.0799 0.567091 28.4391C0.930194 28.7982 1.42267 29 1.93617 29H24.0638C24.5773 29 25.0698 28.7982 25.4329 28.4391C25.796 28.0799 26 27.5928 26 27.0849V11.7642C26 11.2562 25.796 10.7691 25.4329 10.41C25.0698 10.0508 24.5773 9.84906 24.0638 9.84906ZM8.29787 6.29245C8.29787 5.05895 8.79327 3.87596 9.67509 3.00374C10.5569 2.13152 11.7529 1.64151 13 1.64151C14.2471 1.64151 15.4431 2.13152 16.3249 3.00374C17.2067 3.87596 17.7021 5.05895 17.7021 6.29245V9.84906H8.29787V6.29245ZM24.3404 27.0849C24.3404 27.1575 24.3113 27.2271 24.2594 27.2784C24.2075 27.3297 24.1372 27.3585 24.0638 27.3585H1.93617C1.86281 27.3585 1.79246 27.3297 1.74059 27.2784C1.68872 27.2271 1.65957 27.1575 1.65957 27.0849V11.7642C1.65957 11.6916 1.68872 11.622 1.74059 11.5707C1.79246 11.5194 1.86281 11.4906 1.93617 11.4906H24.0638C24.1372 11.4906 24.2075 11.5194 24.2594 11.5707C24.3113 11.622 24.3404 11.6916 24.3404 11.7642V27.0849ZM13 14.2264C12.1195 14.2276 11.2701 14.5482 10.6127 15.1276C9.9553 15.707 9.53568 16.5048 9.43337 17.3698C9.33107 18.2348 9.5532 19.1068 10.0576 19.8206C10.5621 20.5344 11.3138 21.0404 12.1702 21.2425V23.8019C12.1702 24.0196 12.2576 24.2283 12.4133 24.3822C12.5689 24.5362 12.7799 24.6226 13 24.6226C13.2201 24.6226 13.4311 24.5362 13.5867 24.3822C13.7424 24.2283 13.8298 24.0196 13.8298 23.8019V21.2425C14.6862 21.0404 15.4379 20.5344 15.9424 19.8206C16.4468 19.1068 16.6689 18.2348 16.5666 17.3698C16.4643 16.5048 16.0447 15.707 15.3873 15.1276C14.7299 14.5482 13.8805 14.2276 13 14.2264ZM13 19.6981C12.6171 19.6981 12.2427 19.5858 11.9243 19.3754C11.6059 19.1649 11.3578 18.8658 11.2112 18.5159C11.0647 18.166 11.0263 17.7809 11.101 17.4094C11.1757 17.0379 11.3601 16.6967 11.6309 16.4288C11.9017 16.161 12.2467 15.9786 12.6223 15.9047C12.9979 15.8308 13.3872 15.8688 13.7409 16.0137C14.0947 16.1587 14.3971 16.4041 14.6099 16.719C14.8226 17.034 14.9362 17.4042 14.9362 17.783C14.9362 18.2909 14.7322 18.778 14.3691 19.1372C14.006 19.4963 13.5135 19.6981 13 19.6981Z" fill="#282828" fill-opacity="0.5"/>
</svg>
