<svg width="20" height="20" viewBox="0 0 20 20" fill="none" xmlns="http://www.w3.org/2000/svg">
<path d="M5.8335 1.6665C5.17045 1.6665 4.53457 1.9299 4.06573 2.39874C3.59689 2.86758 3.3335 3.50346 3.3335 4.1665V15.8332C3.3335 16.4962 3.59689 17.1321 4.06573 17.6009C4.53457 18.0698 5.17045 18.3332 5.8335 18.3332H14.1668C14.8299 18.3332 15.4658 18.0698 15.9346 17.6009C16.4034 17.1321 16.6668 16.4962 16.6668 15.8332V14.9998C16.6668 14.5396 16.2937 14.1665 15.8335 14.1665C15.3733 14.1665 15.0002 14.5396 15.0002 14.9998V15.8332C15.0002 16.0542 14.9124 16.2661 14.7561 16.4224C14.5998 16.5787 14.3878 16.6665 14.1668 16.6665H5.8335C5.61248 16.6665 5.40052 16.5787 5.24424 16.4224C5.08796 16.2661 5.00016 16.0542 5.00016 15.8332V4.1665C5.00016 3.94549 5.08796 3.73353 5.24424 3.57725C5.40052 3.42097 5.61248 3.33317 5.8335 3.33317H14.1668C14.3878 3.33317 14.5998 3.42097 14.7561 3.57725C14.9124 3.73353 15.0002 3.94549 15.0002 4.1665V4.99984C15.0002 5.46007 15.3733 5.83317 15.8335 5.83317C16.2937 5.83317 16.6668 5.46007 16.6668 4.99984V4.1665C16.6668 3.50346 16.4034 2.86758 15.9346 2.39874C15.4658 1.9299 14.8299 1.6665 14.1668 1.6665H5.8335Z" fill="#FF0A00"/>
<path d="M13.9228 6.91058C13.5973 6.58514 13.0697 6.58514 12.7442 6.91058C12.4188 7.23602 12.4188 7.76366 12.7442 8.08909L13.8217 9.1665H10.0002C9.53993 9.1665 9.16683 9.5396 9.16683 9.99984C9.16683 10.4601 9.53993 10.8332 10.0002 10.8332H13.8217L12.7442 11.9106C12.4188 12.236 12.4188 12.7637 12.7442 13.0891C13.0697 13.4145 13.5973 13.4145 13.9228 13.0891L16.4228 10.5891C16.7482 10.2637 16.7482 9.73602 16.4228 9.41058L13.9228 6.91058Z" fill="#FF0A00"/>
</svg>
