<svg width="26" height="21" viewBox="0 0 26 21" fill="none" xmlns="http://www.w3.org/2000/svg">
<path d="M25.2353 0H0.764706C0.561893 0 0.367387 0.0850958 0.223977 0.236568C0.0805669 0.388039 0 0.593479 0 0.807692V19.1154C0 19.6152 0.18799 20.0946 0.522614 20.448C0.857237 20.8014 1.31108 21 1.78431 21H24.2157C24.6889 21 25.1428 20.8014 25.4774 20.448C25.812 20.0946 26 19.6152 26 19.1154V0.807692C26 0.593479 25.9194 0.388039 25.776 0.236568C25.6326 0.0850958 25.4381 0 25.2353 0ZM13 11.5581L2.73 1.61538H23.27L13 11.5581ZM9.64422 10.5L1.52941 18.3562V2.64385L9.64422 10.5ZM10.776 11.5958L12.4902 13.2488C12.6312 13.3851 12.8153 13.4606 13.0064 13.4606C13.1974 13.4606 13.3816 13.3851 13.5226 13.2488L15.2304 11.5958L23.27 19.3846H2.73127L10.776 11.5958ZM16.3558 10.5L24.4706 2.64385V18.3562L16.3558 10.5Z" fill="#282828" fill-opacity="0.6"/>
</svg>
