<svg width="25" height="25" viewBox="0 0 25 25" fill="none" xmlns="http://www.w3.org/2000/svg">
<path d="M12.5002 12.5C10.896 12.5 9.52273 11.9288 8.38037 10.7864C7.23801 9.64408 6.66683 8.27081 6.66683 6.66665C6.66683 5.06248 7.23801 3.68922 8.38037 2.54685C9.52273 1.40449 10.896 0.833313 12.5002 0.833313C14.1043 0.833313 15.4776 1.40449 16.62 2.54685C17.7623 3.68922 18.3335 5.06248 18.3335 6.66665C18.3335 8.27081 17.7623 9.64408 16.62 10.7864C15.4776 11.9288 14.1043 12.5 12.5002 12.5ZM0.833496 24.1666V20.0833C0.833496 19.2569 1.04617 18.4974 1.47152 17.8047C1.89686 17.112 2.46197 16.5833 3.16683 16.2187C4.67377 15.4653 6.20502 14.9002 7.76058 14.5234C9.31613 14.1467 10.896 13.9583 12.5002 13.9583C14.1043 13.9583 15.6842 14.1467 17.2397 14.5234C18.7953 14.9002 20.3266 15.4653 21.8335 16.2187C22.5384 16.5833 23.1035 17.112 23.5288 17.8047C23.9542 18.4974 24.1668 19.2569 24.1668 20.0833V24.1666H0.833496ZM3.75016 21.25H21.2502V20.0833C21.2502 19.816 21.1833 19.5729 21.0496 19.3541C20.916 19.1354 20.7397 18.9653 20.521 18.8437C19.2085 18.1875 17.8838 17.6953 16.547 17.3672C15.2102 17.039 13.8613 16.875 12.5002 16.875C11.1391 16.875 9.79009 17.039 8.45329 17.3672C7.11648 17.6953 5.79183 18.1875 4.47933 18.8437C4.26058 18.9653 4.08436 19.1354 3.95068 19.3541C3.817 19.5729 3.75016 19.816 3.75016 20.0833V21.25ZM12.5002 9.58331C13.3022 9.58331 13.9889 9.29772 14.5601 8.72654C15.1312 8.15536 15.4168 7.46873 15.4168 6.66665C15.4168 5.86456 15.1312 5.17793 14.5601 4.60675C13.9889 4.03557 13.3022 3.74998 12.5002 3.74998C11.6981 3.74998 11.0114 4.03557 10.4403 4.60675C9.86909 5.17793 9.5835 5.86456 9.5835 6.66665C9.5835 7.46873 9.86909 8.15536 10.4403 8.72654C11.0114 9.29772 11.6981 9.58331 12.5002 9.58331Z" fill="#282828"/>
</svg>
