<svg width="21" height="19" viewBox="0 0 21 19" fill="none" xmlns="http://www.w3.org/2000/svg">
<path d="M19.0938 0.90625H1.90625C1.49185 0.90625 1.09442 1.07087 0.801396 1.3639C0.50837 1.65692 0.34375 2.05435 0.34375 2.46875V16.5312C0.34375 16.9457 0.50837 17.3431 0.801396 17.6361C1.09442 17.9291 1.49185 18.0938 1.90625 18.0938H19.0938C19.5082 18.0938 19.9056 17.9291 20.1986 17.6361C20.4916 17.3431 20.6562 16.9457 20.6562 16.5312V2.46875C20.6562 2.05435 20.4916 1.65692 20.1986 1.3639C19.9056 1.07087 19.5082 0.90625 19.0938 0.90625ZM19.0938 2.46875V12.5029L16.5479 9.95801C16.4028 9.81288 16.2305 9.69775 16.0409 9.61921C15.8513 9.54066 15.6481 9.50024 15.4429 9.50024C15.2377 9.50024 15.0344 9.54066 14.8448 9.61921C14.6553 9.69775 14.483 9.81288 14.3379 9.95801L12.3848 11.9111L8.08789 7.61426C7.79489 7.32145 7.39762 7.15697 6.9834 7.15697C6.56917 7.15697 6.1719 7.32145 5.87891 7.61426L1.90625 11.5869V2.46875H19.0938ZM1.90625 13.7969L6.98438 8.71875L14.7969 16.5312H1.90625V13.7969ZM19.0938 16.5312H17.0068L13.4912 13.0156L15.4443 11.0625L19.0938 14.7129V16.5312ZM12.0625 6.76562C12.0625 6.53385 12.1312 6.30728 12.26 6.11457C12.3888 5.92185 12.5718 5.77165 12.7859 5.68295C13.0001 5.59426 13.2357 5.57105 13.463 5.61627C13.6903 5.66148 13.8991 5.77309 14.063 5.93698C14.2269 6.10087 14.3385 6.30968 14.3837 6.537C14.429 6.76432 14.4057 6.99995 14.317 7.21408C14.2283 7.42821 14.0781 7.61124 13.8854 7.74C13.6927 7.86877 13.4662 7.9375 13.2344 7.9375C12.9236 7.9375 12.6255 7.81403 12.4057 7.59427C12.186 7.3745 12.0625 7.07643 12.0625 6.76562Z" fill="#282828"/>
</svg>
