<svg width="25" height="25" viewBox="0 0 25 25" fill="none" xmlns="http://www.w3.org/2000/svg">
<path d="M12.5 12.5C10.8959 12.5 9.52261 11.9288 8.38025 10.7864C7.23789 9.64408 6.66671 8.27081 6.66671 6.66665C6.66671 5.06248 7.23789 3.68922 8.38025 2.54685C9.52261 1.40449 10.8959 0.833313 12.5 0.833313C14.1042 0.833313 15.4775 1.40449 16.6198 2.54685C17.7622 3.68922 18.3334 5.06248 18.3334 6.66665C18.3334 8.27081 17.7622 9.64408 16.6198 10.7864C15.4775 11.9288 14.1042 12.5 12.5 12.5ZM0.833374 24.1666V20.0833C0.833374 19.2569 1.04605 18.4974 1.47139 17.8047C1.89674 17.112 2.46185 16.5833 3.16671 16.2187C4.67365 15.4653 6.2049 14.9002 7.76046 14.5234C9.31601 14.1467 10.8959 13.9583 12.5 13.9583C14.1042 13.9583 15.6841 14.1467 17.2396 14.5234C18.7952 14.9002 20.3264 15.4653 21.8334 16.2187C22.5382 16.5833 23.1033 17.112 23.5287 17.8047C23.954 18.4974 24.1667 19.2569 24.1667 20.0833V24.1666H0.833374ZM3.75004 21.25H21.25V20.0833C21.25 19.816 21.1832 19.5729 21.0495 19.3541C20.9158 19.1354 20.7396 18.9653 20.5209 18.8437C19.2084 18.1875 17.8837 17.6953 16.5469 17.3672C15.2101 17.039 13.8612 16.875 12.5 16.875C11.1389 16.875 9.78997 17.039 8.45317 17.3672C7.11636 17.6953 5.79171 18.1875 4.47921 18.8437C4.26046 18.9653 4.08424 19.1354 3.95056 19.3541C3.81688 19.5729 3.75004 19.816 3.75004 20.0833V21.25ZM12.5 9.58331C13.3021 9.58331 13.9888 9.29772 14.5599 8.72654C15.1311 8.15536 15.4167 7.46873 15.4167 6.66665C15.4167 5.86456 15.1311 5.17793 14.5599 4.60675C13.9888 4.03557 13.3021 3.74998 12.5 3.74998C11.698 3.74998 11.0113 4.03557 10.4401 4.60675C9.86896 5.17793 9.58337 5.86456 9.58337 6.66665C9.58337 7.46873 9.86896 8.15536 10.4401 8.72654C11.0113 9.29772 11.698 9.58331 12.5 9.58331Z" fill="#282828"/>
</svg>
