<svg width="46" height="41" viewBox="0 0 46 41" fill="none" xmlns="http://www.w3.org/2000/svg">
<path d="M23.345 36.6896C31.8196 36.6896 38.6897 29.8195 38.6897 21.3449C38.6897 12.8703 31.8196 6.00024 23.345 6.00024C14.8704 6.00024 8.00037 12.8703 8.00037 21.3449C8.00037 29.8195 14.8704 36.6896 23.345 36.6896Z" stroke="white" stroke-width="1.2106" stroke-miterlimit="10"/>
<path d="M23.3449 19.8413C26.3275 19.8413 28.7454 17.4234 28.7454 14.4409C28.7454 11.4583 26.3275 9.04041 23.3449 9.04041C20.3623 9.04041 17.9445 11.4583 17.9445 14.4409C17.9445 17.4234 20.3623 19.8413 23.3449 19.8413Z" stroke="white" stroke-width="1.2106" stroke-miterlimit="10"/>
<path d="M33.2997 9.66751C26.8505 4.16972 17.1655 4.94098 11.6676 11.3902C6.16969 17.8395 6.94096 27.5245 13.3902 33.0222C14.3003 33.7982 15.2797 34.4353 16.2979 34.9632C16.2761 34.5952 16.2632 34.223 16.2632 33.8457C16.2632 27.4827 19.4338 22.3245 23.345 22.3245C27.2563 22.3245 30.4268 27.4827 30.4268 33.8457C30.4268 34.2256 30.414 34.6007 30.3919 34.9713C32.1097 34.0838 33.6905 32.862 35.0225 31.2996C40.5203 24.8504 39.7489 15.1653 33.2997 9.66751Z" stroke="white" stroke-width="1.2106" stroke-miterlimit="10"/>
</svg>
