<svg width="41" height="41" viewBox="0 0 41 41" fill="none" xmlns="http://www.w3.org/2000/svg">
<rect width="41" height="41" rx="5" fill="#FF8989"/>
<path d="M22.5833 10.0835H14.2604C13.1145 10.0835 12.177 11.0106 12.177 12.1668L12.1666 28.8335C12.1666 29.9793 13.1041 30.9168 14.25 30.9168H26.75C27.8958 30.9168 28.8333 29.9793 28.8333 28.8335V16.3335L22.5833 10.0835ZM21.5416 17.3752V11.646L27.2708 17.3752H21.5416ZM22.5833 22.5835L24.6666 21.4793V25.771L22.5833 24.6668V25.7085C22.5833 26.2814 22.1145 26.7502 21.5416 26.7502H17.375C16.802 26.7502 16.3333 26.2814 16.3333 25.7085V21.5418C16.3333 20.9689 16.802 20.5002 17.375 20.5002H21.5416C22.1145 20.5002 22.5833 20.9689 22.5833 21.5418V22.5835Z" fill="white"/>
</svg>
